<svg width="64" height="64" viewBox="0 0 64 64" fill="none" xmlns="http://www.w3.org/2000/svg">
<g clip-path="url(#clip0_2029_18)">
<rect width="64" height="64" fill="#08090A"/>
<g filter="url(#filter0_d_2029_18)">
<path d="M38.7948 20.7586C38.2124 18.8494 37.0431 17.5001 35.2871 16.7109C33.546 15.9189 31.4478 15.7585 28.9926 16.2298C27.2666 16.5611 25.836 17.1057 24.701 17.8636C23.5659 18.6214 22.7567 19.5096 22.2733 20.528C21.79 21.5465 21.6509 22.6301 21.8559 23.7787C22.0387 24.731 22.413 25.5154 22.9787 26.1319C23.5594 26.7456 24.2763 27.2251 25.1294 27.5705C25.9797 27.901 26.8975 28.1413 27.8829 28.2916C28.8683 28.4419 29.8511 28.5386 30.8314 28.5819L35.3224 28.8307C37.1256 28.9011 38.889 29.1257 40.6125 29.5046C42.3509 29.8806 43.9525 30.468 45.4172 31.2668C46.8968 32.0628 48.15 33.1259 49.1767 34.4562C50.2035 35.7865 50.9068 37.4412 51.2867 39.4202C51.8008 42.0986 51.569 44.5884 50.5914 46.8897C49.6109 49.1762 47.9361 51.1407 45.5669 52.7835C43.2097 54.4085 40.2009 55.5723 36.5405 56.2749C32.9842 56.9575 29.791 56.9996 26.9607 56.4012C24.1454 55.8 21.7984 54.5842 19.9197 52.7541C18.0559 50.921 16.7731 48.4982 16.0714 45.4855L24.2182 43.9218C24.6428 45.4911 25.388 46.7211 26.4539 47.6119C27.5197 48.5027 28.7945 49.0757 30.2783 49.3309C31.777 49.5832 33.3893 49.5437 35.1154 49.2124C36.9159 48.8668 38.4417 48.2962 39.693 47.5006C40.9562 46.6873 41.8819 45.7227 42.47 44.607C43.0553 43.4764 43.2297 42.255 42.9932 40.9427C42.7498 39.7552 42.2116 38.8402 41.3786 38.1979C40.5428 37.5406 39.4573 37.0701 38.1224 36.7864C36.7994 36.4849 35.2795 36.283 33.5628 36.1805L28.1052 35.8396C24.1549 35.595 20.8976 34.7006 18.3333 33.1563C15.7809 31.5943 14.1906 29.1765 13.5622 25.9029C13.0452 23.2097 13.3216 20.7112 14.3914 18.4077C15.4761 16.1012 17.1761 14.1473 19.4914 12.5457C21.804 10.9293 24.5598 9.81403 27.759 9.19995C31.0028 8.5773 33.9534 8.59719 36.6107 9.25965C39.2801 9.90436 41.5055 11.0894 43.287 12.8148C45.0656 14.5254 46.2242 16.6635 46.763 19.2291L38.7948 20.7586Z" fill="url(#paint0_linear_2029_18)"/>
</g>
</g>
<defs>
<filter id="filter0_d_2029_18" x="-18.6308" y="-22.4818" width="100.914" height="110.563" filterUnits="userSpaceOnUse" color-interpolation-filters="sRGB">
<feFlood flood-opacity="0" result="BackgroundImageFix"/>
<feColorMatrix in="SourceAlpha" type="matrix" values="0 0 0 0 0 0 0 0 0 0 0 0 0 0 0 0 0 0 127 0" result="hardAlpha"/>
<feOffset/>
<feGaussianBlur stdDeviation="14.2"/>
<feComposite in2="hardAlpha" operator="out"/>
<feColorMatrix type="matrix" values="0 0 0 0 1 0 0 0 0 0.42 0 0 0 0 0 0 0 0 0.46 0"/>
<feBlend mode="normal" in2="BackgroundImageFix" result="effect1_dropShadow_2029_18"/>
<feBlend mode="normal" in="SourceGraphic" in2="effect1_dropShadow_2029_18" result="shape"/>
</filter>
<linearGradient id="paint0_linear_2029_18" x1="4.1189" y1="-1.35101" x2="58.3934" y2="-2.52335" gradientUnits="userSpaceOnUse">
<stop stop-color="#FFBF00"/>
<stop offset="1" stop-color="#FF6B00"/>
</linearGradient>
<clipPath id="clip0_2029_18">
<rect width="64" height="64" fill="white"/>
</clipPath>
</defs>
</svg>
